#!OML:ASF X:\für Bonn\!DataBase\2005_08_11_Bastian_Final\c3d\Bastian.ASF
:FULLY-SPECIFIED
:DEGREES
601
root -2.42636 1.17326 21.4817 -1001.12 -1.66403 -176.967
lowerback 11.1965 -1.58639 1.47449
upperback 8.02644 -2.76225 1.14475
thorax 2.10865 -1.736 0.597292
lowerneck -23.9543 -3.59873 -5.35279
upperneck 1.65575 -4.12389 4.92573
head 4.41363 -1.94656 1.97177
rclavicle 5.20816e-014 -5.54609e-014
rhumerus -63.5944 56.7935 -108.526
rradius 25.6386
rwrist -15.2567
rhand -13.6477 -3.46104
rfingers 7.12502
rthumb 12.4688 -33.0691
lclavicle 5.20816e-014 -5.54609e-014
lhumerus -46.8236 -47.4849 102.401
lradius 21.6263
lwrist 28.8691
lhand -9.93368 -2.22557
lfingers 7.12502
lthumb 16.0475 27.1299
rfemur 2.55771 6.45068 24.1805
rtibia 31.9534
rfoot -24.9708 -34.5066
rtoes 4.69678
lfemur 4.71191 1.55029 -14.4185
ltibia 21.4484
lfoot 1.86882 0.21059
ltoes -7.81178
602
root -2.42492 1.17254 21.4822 -1001.08 -1.66563 -176.964
lowerback 11.1741 -1.58232 1.4442
upperback 8.01235 -2.75774 1.16265
thorax 2.10795 -1.73429 0.631803
lowerneck -23.9213 -3.57498 -5.3595
upperneck 1.56197 -4.09029 4.88518
head 4.37643 -1.93507 1.96436
rclavicle 3.02153e-014 -3.02153e-014
rhumerus -63.6047 56.8046 -108.513
rradius 25.6427
rwrist -15.2624
rhand -13.6477 -3.46126
rfingers 7.12502
rthumb 12.4688 -33.0693
lclavicle 3.02153e-014 -3.02153e-014
lhumerus -46.7167 -47.3402 102.283
lradius 21.6141
lwrist 28.7033
lhand -9.90969 -2.23584
lfingers 7.12502
lthumb 16.0706 27.1177
rfemur 2.52556 6.49958 24.1902
rtibia 31.9444
rfoot -25.095 -34.5031
rtoes 4.90402
lfemur 4.65258 1.55223 -14.4349
ltibia 21.4654
lfoot 1.91583 0.0489424
ltoes -7.72321
603
root -2.42266 1.17238 21.4827 -1001.06 -1.66515 -176.955
lowerback 11.1621 -1.58372 1.40807
upperback 8.00295 -2.76173 1.17695
thorax 2.10663 -1.73749 0.66692
lowerneck -23.8891 -3.54475 -5.342
upperneck 1.46363 -4.05429 4.83099
head 4.33699 -1.92323 1.94906
rclavicle -3.1408e-014 3.3694e-014
rhumerus -63.5289 56.7657 -108.426
rradius 25.6184
rwrist -15.1904
rhand -13.6746 -3.43685
rfingers 7.12502
rthumb 12.4429 -33.0465
lclavicle -3.1408e-014 3.3694e-014
lhumerus -46.6398 -47.2377 102.212
lradius 21.5631
lwrist 28.5961
lhand -9.90483 -2.29302
lfingers 7.12502
lthumb 16.0753 27.0602
rfemur 2.50022 6.47423 24.189
rtibia 31.9352
rfoot -25.071 -34.5277
rtoes 4.83209
lfemur 4.61765 1.53319 -14.443
ltibia 21.4811
lfoot 1.94555 -0.10045
ltoes -7.54516
604
root -2.42018 1.17118 21.4822 -1001.05 -1.64205 -176.96
lowerback 11.1604 -1.57985 1.40414
upperback 8.00539 -2.75796 1.18967
thorax 2.11097 -1.73649 0.681775
lowerneck -23.8852 -3.52091 -5.34082
upperneck 1.38792 -4.02456 4.8129
head 4.31039 -1.9118 1.94674
rclavicle 2.34566e-014 -3.1408e-014
rhumerus -63.5412 56.7858 -108.441
rradius 25.6397
rwrist -15.2264
rhand -13.6921 -3.49355
rfingers 7.12502
rthumb 12.4259 -33.1042
lclavicle 2.34566e-014 -3.1408e-014
lhumerus -46.5969 -47.184 102.154
lradius 21.5654
lwrist 28.5327
lhand -9.90518 -2.30038
lfingers 7.12502
lthumb 16.075 27.0528
rfemur 2.49608 6.53127 24.2419
rtibia 31.9237
rfoot -25.1752 -34.5553
rtoes 4.87542
lfemur 4.58482 1.54824 -14.4216
ltibia 21.4964
lfoot 2.00817 -0.252403
ltoes -7.48262
605
root -2.41733 1.17126 21.4831 -1001.01 -1.64358 -176.959
lowerback 11.1449 -1.57729 1.3704
upperback 7.98416 -2.75425 1.19793
thorax 2.09856 -1.73455 0.708837
lowerneck -23.8361 -3.50421 -5.35865
upperneck 1.2974 -4.00053 4.80143
head 4.27356 -1.90305 1.94944
rclavicle -2.38542e-014 -5.1684e-015
rhumerus -63.4191 56.7013 -108.31
rradius 25.6045
rwrist -15.1415
rhand -13.696 -3.4678
rfingers 7.12502
rthumb 12.4222 -33.0787
lclavicle -2.38542e-014 -5.1684e-015
lhumerus -46.5462 -47.0858 102.082
lradius 21.534
lwrist 28.4428
lhand -9.87995 -2.33949
lfingers 7.12502
lthumb 16.0993 27.0118
rfemur 2.46275 6.54397 24.2453
rtibia 31.9142
rfoot -25.2242 -34.5664
rtoes 4.94399
lfemur 4.53261 1.54513 -14.4266
ltibia 21.5137
lfoot 2.03612 -0.381001
ltoes -7.61269
